<svg width="52" height="52" viewBox="0 0 52 52" fill="none" xmlns="http://www.w3.org/2000/svg">
<rect width="52" height="52" rx="14.6957" fill="#21351A"/>
<path d="M23.5948 40.716L24.6573 39.2751L24.6583 39.2788L25.8084 41.1982V38.6375L22.5333 37.1966L24.6573 35.7557L24.3334 25.8019C24.3135 25.1917 24.1281 24.5953 23.7935 24.065L21.861 21.0029C21.6782 20.7133 21.2279 20.6861 21.0041 20.9511L20.029 22.1058C19.9303 22.2226 19.7379 22.2286 19.6307 22.1181L15.3469 17.7055C15.2948 17.6518 15.2298 17.6097 15.1568 17.5824L14.0412 17.1647C13.8716 17.1012 13.8278 16.9023 13.9576 16.7849L14.2517 16.519C14.3331 16.4454 14.4587 16.4295 14.5592 16.4802L23.9855 21.2273C24.5119 21.4924 25.1565 21.135 25.1337 20.5906L24.8314 13.3491L18.9956 9.82781L12.5448 9.04348L9.04348 10.7875C12.0634 12.5037 12.5889 17.3508 11.9991 19.848C11.9 20.2675 12.0567 20.7198 12.4401 20.9726C20.0244 25.9735 19.5134 31.2925 19.9655 34.1138C20.4082 36.8746 20.4133 42.2361 22.5323 42.9565V40.2321L23.0635 39.5953L23.5948 40.716Z" fill="#9FE878"/>
<path d="M28.4052 40.716L27.3427 39.2751L27.3417 39.2788L26.1916 41.1982V38.6375L29.4667 37.1966L27.3427 35.7557L27.6666 25.8019C27.6865 25.1917 27.8719 24.5953 28.2065 24.065L30.139 21.0029C30.3218 20.7133 30.7721 20.6861 30.9959 20.9511L31.971 22.1058C32.0697 22.2226 32.2621 22.2286 32.3693 22.1181L36.6531 17.7055C36.7052 17.6518 36.7702 17.6097 36.8432 17.5824L37.9588 17.1647C38.1285 17.1012 38.1722 16.9023 38.0424 16.7849L37.7483 16.519C37.6669 16.4454 37.5413 16.4295 37.4408 16.4802L28.0145 21.2273C27.4881 21.4924 26.8435 21.135 26.8663 20.5906L27.1686 13.3491L33.0044 9.82781L39.4552 9.04348L42.9565 10.7875C39.9366 12.5037 39.4111 17.3508 40.0009 19.848C40.1 20.2675 39.9433 20.7198 39.5599 20.9726C31.9756 25.9735 32.4866 31.2925 32.0345 34.1138C31.5918 36.8746 31.5867 42.2361 29.4677 42.9565V40.2321L28.9365 39.5953L28.4052 40.716Z" fill="#9FE878"/>
<path d="M23.5948 40.716L24.6573 39.2751L24.6583 39.2788L25.8084 41.1982V38.6375L22.5333 37.1966L24.6573 35.7557L24.3334 25.8019C24.3135 25.1917 24.1281 24.5953 23.7935 24.065L21.861 21.0029C21.6782 20.7133 21.2279 20.6861 21.0041 20.9511L20.029 22.1058C19.9303 22.2226 19.7379 22.2286 19.6307 22.1181L15.3469 17.7055C15.2948 17.6518 15.2298 17.6097 15.1568 17.5824L14.0412 17.1647C13.8716 17.1012 13.8278 16.9023 13.9576 16.7849L14.2517 16.519C14.3331 16.4454 14.4587 16.4295 14.5592 16.4802L23.9855 21.2273C24.5119 21.4924 25.1565 21.135 25.1337 20.5906L24.8314 13.3491L18.9956 9.82781L12.5448 9.04348L9.04348 10.7875C12.0634 12.5037 12.5889 17.3508 11.9991 19.848C11.9 20.2675 12.0567 20.7198 12.4401 20.9726C20.0244 25.9735 19.5134 31.2925 19.9655 34.1138C20.4082 36.8746 20.4133 42.2361 22.5323 42.9565V40.2321L23.0635 39.5953L23.5948 40.716Z" stroke="#21351A"/>
<path d="M28.4052 40.716L27.3427 39.2751L27.3417 39.2788L26.1916 41.1982V38.6375L29.4667 37.1966L27.3427 35.7557L27.6666 25.8019C27.6865 25.1917 27.8719 24.5953 28.2065 24.065L30.139 21.0029C30.3218 20.7133 30.7721 20.6861 30.9959 20.9511L31.971 22.1058C32.0697 22.2226 32.2621 22.2286 32.3693 22.1181L36.6531 17.7055C36.7052 17.6518 36.7702 17.6097 36.8432 17.5824L37.9588 17.1647C38.1285 17.1012 38.1722 16.9023 38.0424 16.7849L37.7483 16.519C37.6669 16.4454 37.5413 16.4295 37.4408 16.4802L28.0145 21.2273C27.4881 21.4924 26.8435 21.135 26.8663 20.5906L27.1686 13.3491L33.0044 9.82781L39.4552 9.04348L42.9565 10.7875C39.9366 12.5037 39.4111 17.3508 40.0009 19.848C40.1 20.2675 39.9433 20.7198 39.5599 20.9726C31.9756 25.9735 32.4866 31.2925 32.0345 34.1138C31.5918 36.8746 31.5867 42.2361 29.4677 42.9565V40.2321L28.9365 39.5953L28.4052 40.716Z" stroke="#21351A"/>
</svg>
