<svg width="16" height="28" viewBox="0 0 16 28" fill="none" xmlns="http://www.w3.org/2000/svg">
<g filter="url(#filter0_i_9248_3250)">
<path d="M4.23195 21.9499C4.23184 21.1291 4.52099 20.4239 5.09941 19.8344C5.67795 19.2448 6.3776 18.95 7.19837 18.9501C8.0137 18.9501 8.71124 19.2455 9.291 19.8364C9.87075 20.4273 10.1607 21.1304 10.1608 21.9459C10.1608 23.0333 9.8369 24.0133 9.18911 24.8856C8.54132 25.758 7.8833 26.623 7.21505 27.4807C6.54413 26.6203 5.87922 25.754 5.22031 24.8816C4.56129 24.0094 4.23184 23.0321 4.23195 21.9499Z" fill="#FF58E4"/>
</g>
<g filter="url(#filter1_i_9248_3250)">
<path d="M8.39244 0.760077C9.86449 2.19172 10.9481 3.74143 11.6433 5.40921C12.3384 7.07699 12.6859 8.94098 12.6859 11.0012V11.1811L14.8905 12.6725C15.1189 12.8181 15.2963 13.0082 15.4225 13.243C15.5487 13.4777 15.6119 13.7272 15.6119 13.9915V18.6338C15.6119 18.9171 15.4956 19.1394 15.2631 19.3007C15.0304 19.4622 14.7811 19.4901 14.5153 19.3844L10.6795 17.8412H4.93095L1.10226 19.3844C0.832633 19.4901 0.581475 19.4622 0.348791 19.3007C0.116263 19.1394 0 18.9171 0 18.6338V13.9915C0 13.7272 0.0631235 13.4777 0.189371 13.243C0.315618 13.0082 0.492961 12.8181 0.7214 12.6725L2.93135 11.1811V11.0125C2.93135 8.94475 3.27802 7.07699 3.97136 5.40921C4.6647 3.74143 5.74739 2.19172 7.21943 0.760077C7.30559 0.673921 7.40047 0.612292 7.50408 0.575188C7.60753 0.538084 7.71011 0.519531 7.81183 0.519531C7.91355 0.519531 8.01417 0.538084 8.11369 0.575188C8.21337 0.612292 8.30629 0.673921 8.39244 0.760077Z" fill="#FF58E4"/>
</g>
<g filter="url(#filter2_di_9248_3250)">
<path d="M4.91232 22.2526C4.94813 23.1418 5.20525 23.9485 5.6837 24.6727C5.92073 25.0315 6.16148 25.39 6.40595 25.7482C6.65502 26.1131 6.77956 26.2956 6.94273 26.3623C7.08298 26.4196 7.24779 26.4193 7.38785 26.3615C7.5508 26.2944 7.67453 26.1118 7.92198 25.7466C8.165 25.388 8.40459 25.0279 8.64075 24.6661C9.11859 23.9341 9.37437 23.1257 9.40808 22.241C9.46427 21.5923 9.26676 21.0446 8.81556 20.5978C8.36454 20.1512 7.81251 19.9169 7.15948 19.8947C6.50622 19.9181 5.9546 20.1548 5.50461 20.6048C5.05482 21.0546 4.85739 21.6039 4.91232 22.2526Z" fill="white"/>
<path d="M3.71073 16.6548C3.7958 16.9296 3.83834 17.0671 3.82107 17.185C3.80558 17.2908 3.76129 17.3843 3.68922 17.4634C3.60891 17.5514 3.47931 17.6041 3.2201 17.7094L1.77021 18.2985C1.38226 18.4561 1.18828 18.5349 1.03244 18.5032C0.896176 18.4754 0.776446 18.3948 0.699419 18.279C0.611328 18.1466 0.611328 17.9372 0.611328 17.5185V14.4284C0.611328 14.2644 0.611328 14.1823 0.633876 14.1078C0.653838 14.0418 0.686568 13.9804 0.730207 13.927C0.7795 13.8668 0.847605 13.821 0.983817 13.7295L1.6643 13.2724C2.02551 13.0298 2.20612 12.9085 2.36516 12.9078C2.50685 12.9071 2.636 12.9598 2.73692 13.0592C2.85018 13.1709 2.89567 13.3889 2.98663 13.8251C3.0698 14.2239 3.15946 14.6194 3.2556 15.0118C3.39076 15.5635 3.54247 16.1111 3.71073 16.6548Z" fill="white"/>
<path d="M7.41808 1.43237C6.05237 2.84718 5.07653 4.32559 4.49057 5.86761C3.90441 7.40982 3.61133 9.20645 3.61133 11.2575C3.61133 12.0687 3.72902 13.0068 3.96441 14.072C4.13285 14.8348 4.35365 15.6154 4.62682 16.4138C4.73959 16.7433 4.79597 16.9081 4.90907 17.0419C5.00573 17.1561 5.14141 17.2531 5.28082 17.3076C5.44397 17.3713 5.62785 17.3713 5.99559 17.3713H9.54033C9.90791 17.3713 10.0917 17.3713 10.2548 17.3076C10.3942 17.2532 10.5298 17.1563 10.6265 17.0421C10.7396 16.9084 10.796 16.7437 10.9088 16.4144C11.1824 15.6158 11.4034 14.835 11.5719 14.072C11.8073 13.0068 11.925 12.0687 11.925 11.2575C11.925 9.20645 11.6319 7.40982 11.0457 5.86761C10.4598 4.32559 9.48395 2.84718 8.11824 1.43237C8.06744 1.39065 8.01264 1.35833 7.95385 1.33542C7.89505 1.31233 7.83206 1.30078 7.76486 1.30078C7.69766 1.30078 7.63537 1.31233 7.57797 1.33542C7.52078 1.35833 7.46748 1.39065 7.41808 1.43237Z" fill="white"/>
<path d="M11.8092 16.6917C11.7241 16.9665 11.6816 17.1039 11.6988 17.2219C11.7143 17.3277 11.7586 17.4212 11.8307 17.5002C11.911 17.5883 12.0406 17.641 12.2998 17.7463L13.7497 18.3354C14.1376 18.493 14.3316 18.5718 14.4875 18.54C14.6237 18.5123 14.7435 18.4317 14.8205 18.3159C14.9086 18.1835 14.9086 17.9741 14.9086 17.5553V14.4653C14.9086 14.3012 14.9086 14.2192 14.886 14.1447C14.8661 14.0787 14.8333 14.0173 14.7897 13.9639C14.7404 13.9036 14.6723 13.8579 14.5361 13.7664L13.8556 13.3093C13.4944 13.0667 13.3138 12.9454 13.1547 12.9447C13.013 12.944 12.8839 12.9966 12.783 13.0961C12.6697 13.2077 12.6242 13.4258 12.5333 13.862C12.4501 14.2607 12.3604 14.6563 12.2643 15.0486C12.1291 15.6004 11.9774 16.148 11.8092 16.6917Z" fill="white"/>
</g>
<path d="M7.80323 10.804C7.35767 10.804 6.97736 10.6461 6.66229 10.3303C6.34707 10.0144 6.18945 9.63189 6.18945 9.18271C6.18945 8.73354 6.34824 8.35157 6.66583 8.03682C6.98325 7.72191 7.36482 7.56445 7.81054 7.56445C8.25626 7.56445 8.63649 7.72317 8.95124 8.04059C9.26616 8.35786 9.42361 8.73927 9.42361 9.18483C9.42361 9.6348 9.2649 10.0172 8.94747 10.3319C8.6302 10.6467 8.24879 10.804 7.80323 10.804Z" fill="#FF58E4"/>
<defs>
<filter id="filter0_i_9248_3250" x="4.23242" y="18.9492" width="5.92773" height="8.62558" filterUnits="userSpaceOnUse" color-interpolation-filters="sRGB">
<feFlood flood-opacity="0" result="BackgroundImageFix"/>
<feBlend mode="normal" in="SourceGraphic" in2="BackgroundImageFix" result="shape"/>
<feColorMatrix in="SourceAlpha" type="matrix" values="0 0 0 0 0 0 0 0 0 0 0 0 0 0 0 0 0 0 127 0" result="hardAlpha"/>
<feOffset dy="0.0943315"/>
<feGaussianBlur stdDeviation="0.141497"/>
<feComposite in2="hardAlpha" operator="arithmetic" k2="-1" k3="1"/>
<feColorMatrix type="matrix" values="0 0 0 0 1 0 0 0 0 1 0 0 0 0 1 0 0 0 1 0"/>
<feBlend mode="normal" in2="shape" result="effect1_innerShadow_9248_3250"/>
</filter>
<filter id="filter1_i_9248_3250" x="0" y="0.519531" width="15.6113" height="19.0221" filterUnits="userSpaceOnUse" color-interpolation-filters="sRGB">
<feFlood flood-opacity="0" result="BackgroundImageFix"/>
<feBlend mode="normal" in="SourceGraphic" in2="BackgroundImageFix" result="shape"/>
<feColorMatrix in="SourceAlpha" type="matrix" values="0 0 0 0 0 0 0 0 0 0 0 0 0 0 0 0 0 0 127 0" result="hardAlpha"/>
<feOffset dy="0.0943315"/>
<feGaussianBlur stdDeviation="0.141497"/>
<feComposite in2="hardAlpha" operator="arithmetic" k2="-1" k3="1"/>
<feColorMatrix type="matrix" values="0 0 0 0 1 0 0 0 0 1 0 0 0 0 1 0 0 0 1 0"/>
<feBlend mode="normal" in2="shape" result="effect1_innerShadow_9248_3250"/>
</filter>
<filter id="filter2_di_9248_3250" x="0.208061" y="1.30078" width="15.1034" height="25.9784" filterUnits="userSpaceOnUse" color-interpolation-filters="sRGB">
<feFlood flood-opacity="0" result="BackgroundImageFix"/>
<feColorMatrix in="SourceAlpha" type="matrix" values="0 0 0 0 0 0 0 0 0 0 0 0 0 0 0 0 0 0 127 0" result="hardAlpha"/>
<feOffset dy="0.471658"/>
<feGaussianBlur stdDeviation="0.201634"/>
<feComposite in2="hardAlpha" operator="out"/>
<feColorMatrix type="matrix" values="0 0 0 0 0 0 0 0 0 0 0 0 0 0 0 0 0 0 0.25 0"/>
<feBlend mode="normal" in2="BackgroundImageFix" result="effect1_dropShadow_9248_3250"/>
<feBlend mode="normal" in="SourceGraphic" in2="effect1_dropShadow_9248_3250" result="shape"/>
<feColorMatrix in="SourceAlpha" type="matrix" values="0 0 0 0 0 0 0 0 0 0 0 0 0 0 0 0 0 0 127 0" result="hardAlpha"/>
<feOffset dy="0.778235"/>
<feGaussianBlur stdDeviation="0.188663"/>
<feComposite in2="hardAlpha" operator="arithmetic" k2="-1" k3="1"/>
<feColorMatrix type="matrix" values="0 0 0 0 0 0 0 0 0 0 0 0 0 0 0 0 0 0 0.25 0"/>
<feBlend mode="normal" in2="shape" result="effect2_innerShadow_9248_3250"/>
</filter>
</defs>
</svg>
