<svg width="16" height="17" viewBox="0 0 16 17" fill="none" xmlns="http://www.w3.org/2000/svg">
<path d="M11.5211 15.5465C7.57616 17.5044 2.79101 15.8936 0.833116 11.9487C-1.12478 8.00385 0.486003 3.2187 4.43089 1.26081C8.37579 -0.697083 13.1609 0.913696 15.1188 4.85859C17.0767 8.80348 15.4659 13.5886 11.5211 15.5465Z" fill="black"/>
<path d="M11.6731 14.8746C7.89102 16.7517 3.30334 15.2073 1.42624 11.4252C-0.450853 7.64315 1.09345 3.05547 4.87555 1.17837C8.65765 -0.698722 13.2453 0.845586 15.1224 4.62768C16.9995 8.40978 15.4552 12.9975 11.6731 14.8746Z" fill="#7B7A72"/>
<path d="M11.2885 14.0728C7.8281 15.7902 3.63068 14.3773 1.91326 10.9169C0.195847 7.45652 1.60879 3.2591 5.06915 1.54169C8.52951 -0.17573 12.7269 1.23721 14.4444 4.69757C16.1618 8.15794 14.7488 12.3554 11.2885 14.0728Z" fill="#F7D033"/>
</svg>
