<svg width="21" height="21" viewBox="0 0 21 21" fill="none" xmlns="http://www.w3.org/2000/svg">
<path d="M20.1696 7.11239C21.974 12.3322 19.2054 18.0264 13.9856 19.8308C8.76583 21.6352 3.07161 18.8665 1.26719 13.6468C-0.537229 8.42701 2.23145 2.73279 7.45122 0.928367C12.671 -0.876052 18.3652 1.89263 20.1696 7.11239Z" fill="#00324C"/>
<path d="M20.0119 6.9125C21.7419 11.9169 19.0875 17.3761 14.0831 19.1061C9.07876 20.836 3.61952 18.1816 1.88956 13.1772C0.159609 8.17286 2.81404 2.71363 7.81839 0.98367C12.8228 -0.746286 18.282 1.90814 20.0119 6.9125Z" fill="white"/>
<path d="M19.2893 7.01502C20.8721 11.5937 18.4435 16.5885 13.8648 18.1713C9.28615 19.7541 4.29131 17.3255 2.70852 12.7468C1.12573 8.16817 3.55435 3.17333 8.133 1.59054C12.7117 0.0077473 17.7065 2.43637 19.2893 7.01502Z" fill="#00324C"/>
<path d="M18.5742 7.24746C20.0224 11.4367 17.8004 16.0067 13.6111 17.4548C9.42193 18.903 4.85192 16.681 3.40375 12.4917C1.95559 8.30253 4.17764 3.73253 8.36686 2.28436C12.5561 0.836191 17.1261 3.05825 18.5742 7.24746Z" fill="white"/>
<path d="M9.73175 9.43671C9.81214 9.45298 9.89247 9.41244 9.93497 9.3423C10.0015 9.23252 10.0807 9.13204 10.1726 9.04086C10.2976 8.9169 10.4429 8.82628 10.6086 8.76899C10.7743 8.7117 10.9446 8.69322 11.1195 8.71354C11.2481 8.72849 11.3724 8.7586 11.4925 8.80386C11.5693 8.83279 11.6575 8.81506 11.7107 8.75262L12.3072 8.05211C12.3987 7.94461 12.3371 7.77837 12.1976 7.75651L10.2424 7.45018C10.1831 7.4409 10.1231 7.46164 10.0822 7.50556L8.7336 8.95398C8.63738 9.05732 8.69158 9.22614 8.82997 9.25415L9.73175 9.43671Z" fill="#00324C"/>
<path d="M11.2744 12.3319C11.4108 12.3578 11.5242 12.2266 11.4789 12.0954L11.2019 11.2942C11.1752 11.2169 11.0998 11.1685 11.0181 11.1666C10.7799 11.1611 10.558 11.096 10.3524 10.9712C10.1075 10.8225 9.93809 10.6124 9.84426 10.341C9.82747 10.2924 9.81194 10.2402 9.79766 10.1844C9.79407 10.1704 9.79099 10.1558 9.78842 10.1406C9.77378 10.0545 9.7167 9.97748 9.63116 9.95984L8.6944 9.76666C8.55721 9.73837 8.44141 9.87022 8.48718 10.0026L9.11886 11.8299C9.14001 11.8911 9.19229 11.9363 9.25589 11.9484L11.2744 12.3319Z" fill="#00324C"/>
<path d="M11.2438 10.6057C11.4314 10.5408 11.567 10.4202 11.6505 10.244C11.7339 10.0676 11.7441 9.88821 11.681 9.70571C11.6162 9.5181 11.4969 9.3821 11.3231 9.29771C11.1493 9.21338 10.9687 9.20365 10.781 9.2685C10.5985 9.33159 10.4638 9.45045 10.3769 9.62507C10.29 9.79973 10.279 9.98086 10.3438 10.1685C10.4069 10.351 10.5271 10.4853 10.7042 10.5713C10.8814 10.6573 11.0613 10.6688 11.2438 10.6057Z" fill="#00324C"/>
<path d="M11.9783 11.9227C12.0237 12.0539 12.1939 12.0871 12.2852 11.9825L13.636 10.4343C13.6785 10.3855 13.6917 10.3177 13.6706 10.2565L13.039 8.42938C12.9932 8.29693 12.8206 8.26479 12.7302 8.37188L12.111 9.10534C12.0562 9.17026 12.0568 9.26316 12.098 9.33747C12.1069 9.35355 12.1147 9.36917 12.1214 9.38434C12.144 9.43514 12.1637 9.48482 12.1805 9.53339C12.2743 9.80483 12.2708 10.0746 12.17 10.3428C12.0854 10.568 11.9511 10.7562 11.7671 10.9077C11.704 10.9596 11.6747 11.0443 11.7014 11.1215L11.9783 11.9227Z" fill="#00324C"/>
</svg>
