<svg width="32" height="33" viewBox="0 0 32 33" fill="none" xmlns="http://www.w3.org/2000/svg">
<rect y="0.725586" width="32" height="32" rx="16" fill="white"/>
<path d="M23.4578 12.2142H21.0553C20.7754 12.2142 20.5091 12.0941 20.3238 11.885L19.3492 10.7841C19.2042 10.6197 18.9951 10.5262 18.7764 10.5262C18.5576 10.5262 18.3486 10.6203 18.2035 10.7841L17.3677 11.7286C17.0941 12.0374 16.7014 12.2148 16.2889 12.2148H3.13809C2.76355 13.2823 2.51933 14.4099 2.42188 15.5794H14.8366C15.0548 15.5794 15.2639 15.4904 15.4146 15.3329L16.5705 14.1266C16.715 13.9759 16.9144 13.8909 17.123 13.8909H17.1705C17.3898 13.8909 17.5983 13.9849 17.7434 14.1492L18.7174 15.2502C18.9027 15.4598 19.169 15.5794 19.4489 15.5794H29.5825C29.485 14.4093 29.2408 13.2817 28.8662 12.2148H23.4572L23.4578 12.2142Z" fill="black"/>
<path d="M9.93419 22.6548C10.1523 22.6548 10.3614 22.5659 10.5121 22.4084L11.6681 21.202C11.8125 21.0513 12.012 20.9663 12.2205 20.9663H12.2681C12.4874 20.9663 12.6959 21.0604 12.841 21.2241L13.815 22.3251C14.0003 22.5347 14.2666 22.6543 14.5465 22.6543H28.2792C28.7937 21.5913 29.1705 20.4507 29.3949 19.2557H16.2135C15.9336 19.2557 15.6673 19.1355 15.482 18.9265L14.508 17.8255C14.3629 17.6612 14.1538 17.5677 13.9351 17.5677C13.7164 17.5677 13.5073 17.6617 13.3623 17.8255L12.5265 18.7701C12.2528 19.0789 11.8601 19.2562 11.4471 19.2562H2.60886C2.83325 20.4512 3.21062 21.5919 3.72455 22.6548H9.93419Z" fill="black"/>
<path d="M19.6767 8.53739C19.8949 8.53739 20.104 8.44843 20.2547 8.29091L21.4106 7.08457C21.5551 6.93384 21.7545 6.84885 21.9631 6.84885H22.0106C22.2299 6.84885 22.4384 6.94291 22.5835 7.10723L23.5575 8.20818C23.7428 8.41783 24.0091 8.53739 24.289 8.53739H26.9006C24.4137 5.2317 20.4581 3.09326 16.0022 3.09326C11.5462 3.09326 7.59062 5.2317 5.1037 8.53739H19.6767Z" fill="black"/>
<path d="M14.4315 26.0229H10.86C10.5801 26.0229 10.3138 25.9027 10.1285 25.6937L9.1545 24.5927C9.00944 24.4284 8.80036 24.3349 8.58164 24.3349C8.36292 24.3349 8.15384 24.4289 8.00878 24.5927L7.17301 25.5373C6.89933 25.8461 6.50666 26.0234 6.09359 26.0234H6.03806C8.52611 28.6894 12.0692 30.3581 16.0033 30.3581C19.9374 30.3581 23.4799 28.6894 25.9685 26.0234H14.4315V26.0229Z" fill="black"/>
</svg>
