<svg width="24" height="25" viewBox="0 0 24 25" fill="none" xmlns="http://www.w3.org/2000/svg">
<circle cx="12" cy="12.2744" r="12" fill="#FDCCCC"/>
<path d="M16.0587 11.1879C16.6889 11.4229 17.2497 11.8129 17.6892 12.322C18.1287 12.8312 18.4327 13.4429 18.5732 14.1006C18.7136 14.7584 18.686 15.4409 18.4927 16.0851C18.2995 16.7294 17.9469 17.3145 17.4677 17.7863C16.9884 18.2582 16.3978 18.6016 15.7507 18.7847C15.1035 18.9679 14.4206 18.9849 13.7652 18.8342C13.1097 18.6835 12.5028 18.37 12.0006 17.9226C11.4984 17.4752 11.1171 16.9084 10.892 16.2746M8.66536 8.27458H9.33203V10.9412M15.1387 13.5279L15.6054 14.0012L13.7254 15.8812M13.332 9.60791C13.332 11.817 11.5412 13.6079 9.33203 13.6079C7.12289 13.6079 5.33203 11.817 5.33203 9.60791C5.33203 7.39877 7.12289 5.60791 9.33203 5.60791C11.5412 5.60791 13.332 7.39877 13.332 9.60791Z" stroke="#870101" stroke-width="1.04" stroke-linecap="round" stroke-linejoin="round"/>
</svg>
