<svg width="24" height="25" viewBox="0 0 24 25" fill="none" xmlns="http://www.w3.org/2000/svg">
<circle cx="12" cy="12.2744" r="12" fill="#FDCCCC"/>
<path d="M12.8076 18.8199H9.14701C7.87507 18.8199 6.84397 17.7888 6.84397 16.5168V12.7037M11.2624 5.68799H14.8483C16.0943 5.68799 17.1043 6.71909 17.1043 7.99102V11.8042M8.36198 10.9411C7.09013 10.9411 6.05872 9.91014 6.05859 8.63832C6.05859 7.36639 7.09005 6.33493 8.36198 6.33493C9.6338 6.33506 10.6647 7.36647 10.6647 8.63832C10.6646 9.91006 9.63372 10.9409 8.36198 10.9411ZM15.5754 18.2284C14.3035 18.2284 13.2721 17.1974 13.272 15.9256C13.272 14.6537 14.3034 13.6222 15.5754 13.6222C16.8472 13.6224 17.8781 14.6538 17.8781 15.9256C17.878 17.1974 16.8471 18.2282 15.5754 18.2284Z" stroke="#870101" stroke-width="1.04" stroke-linecap="round"/>
</svg>
