<svg width="32" height="32" viewBox="0 0 32 32" fill="none" xmlns="http://www.w3.org/2000/svg">
<path d="M13.7796 29.5839L14.7604 28.2538L14.7614 28.2572L15.8229 30.0289V27.6652L12.7998 26.3351L14.7604 25.0051L14.4614 15.817C14.4431 15.2537 14.2719 14.7032 13.9631 14.2137L12.1792 11.3871C12.0105 11.1198 11.5948 11.0947 11.3882 11.3393L10.4881 12.4051C10.397 12.513 10.2195 12.5185 10.1204 12.4165L6.16623 8.34336C6.11814 8.29383 6.05811 8.25496 5.99077 8.22975L4.96091 7.84419C4.80434 7.78557 4.76392 7.60192 4.88375 7.49358L5.15528 7.2481C5.23042 7.18017 5.34629 7.16556 5.43911 7.21231L14.1403 11.5942C14.6262 11.8389 15.2212 11.509 15.2002 11.0065L14.9211 4.32206L9.53419 1.07165L3.57965 0.347656L0.347656 1.95752C3.13526 3.54174 3.62038 8.01599 3.07593 10.321C2.98446 10.7083 3.12911 11.1258 3.48299 11.3591C10.4839 15.9754 10.0122 20.8852 10.4295 23.4895C10.8382 26.0379 10.8428 30.987 12.7988 31.652V29.1372L13.2892 28.5494L13.7796 29.5839Z" fill="#21351A"/>
<path d="M18.22 29.5839L17.2392 28.2538L17.2383 28.2572L16.1767 30.0289V27.6652L19.1999 26.3351L17.2392 25.0051L17.5382 15.817C17.5566 15.2537 17.7277 14.7032 18.0366 14.2137L19.8204 11.3871C19.9892 11.1198 20.4049 11.0947 20.6115 11.3393L21.5115 12.4051C21.6027 12.513 21.7802 12.5185 21.8792 12.4165L25.8334 8.34336C25.8815 8.29383 25.9415 8.25496 26.0089 8.22975L27.0388 7.84419C27.1953 7.78557 27.2357 7.60192 27.1159 7.49358L26.8444 7.2481C26.7692 7.18017 26.6534 7.16556 26.5605 7.21231L17.8594 11.5942C17.3735 11.8389 16.7785 11.509 16.7995 11.0065L17.0786 4.32206L22.4655 1.07165L28.42 0.347656L31.652 1.95752C28.8644 3.54174 28.3793 8.01599 28.9237 10.321C29.0152 10.7083 28.8706 11.1258 28.5167 11.3591C21.5157 15.9754 21.9874 20.8852 21.5701 23.4895C21.1615 26.0379 21.1568 30.987 19.2008 31.652V29.1372L18.7104 28.5494L18.22 29.5839Z" fill="#21351A"/>
<path d="M13.7796 29.5839L14.7604 28.2538L14.7614 28.2572L15.8229 30.0289V27.6652L12.7998 26.3351L14.7604 25.0051L14.4614 15.817C14.4431 15.2537 14.2719 14.7032 13.9631 14.2137L12.1792 11.3871C12.0105 11.1198 11.5948 11.0947 11.3882 11.3393L10.4881 12.4051C10.397 12.513 10.2195 12.5185 10.1204 12.4165L6.16623 8.34336C6.11814 8.29383 6.05811 8.25496 5.99077 8.22975L4.96091 7.84419C4.80434 7.78557 4.76392 7.60192 4.88375 7.49358L5.15528 7.2481C5.23042 7.18017 5.34629 7.16556 5.43911 7.21231L14.1403 11.5942C14.6262 11.8389 15.2212 11.509 15.2002 11.0065L14.9211 4.32206L9.53419 1.07165L3.57965 0.347656L0.347656 1.95752C3.13526 3.54174 3.62038 8.01599 3.07593 10.321C2.98446 10.7083 3.12911 11.1258 3.48299 11.3591C10.4839 15.9754 10.0122 20.8852 10.4295 23.4895C10.8382 26.0379 10.8428 30.987 12.7988 31.652V29.1372L13.2892 28.5494L13.7796 29.5839Z" stroke="#9FE878"/>
<path d="M18.22 29.5839L17.2392 28.2538L17.2383 28.2572L16.1767 30.0289V27.6652L19.1999 26.3351L17.2392 25.0051L17.5382 15.817C17.5566 15.2537 17.7277 14.7032 18.0366 14.2137L19.8204 11.3871C19.9892 11.1198 20.4049 11.0947 20.6115 11.3393L21.5115 12.4051C21.6027 12.513 21.7802 12.5185 21.8792 12.4165L25.8334 8.34336C25.8815 8.29383 25.9415 8.25496 26.0089 8.22975L27.0388 7.84419C27.1953 7.78557 27.2357 7.60192 27.1159 7.49358L26.8444 7.2481C26.7692 7.18017 26.6534 7.16556 26.5605 7.21231L17.8594 11.5942C17.3735 11.8389 16.7785 11.509 16.7995 11.0065L17.0786 4.32206L22.4655 1.07165L28.42 0.347656L31.652 1.95752C28.8644 3.54174 28.3793 8.01599 28.9237 10.321C29.0152 10.7083 28.8706 11.1258 28.5167 11.3591C21.5157 15.9754 21.9874 20.8852 21.5701 23.4895C21.1615 26.0379 21.1568 30.987 19.2008 31.652V29.1372L18.7104 28.5494L18.22 29.5839Z" stroke="#9FE878"/>
</svg>
