<svg width="48" height="48" viewBox="0 0 48 48" fill="none" xmlns="http://www.w3.org/2000/svg">
<rect width="48" height="48" rx="13.5652" fill="#9FE878"/>
<path d="M21.7796 37.5841L22.7604 36.254L22.7614 36.2574L23.8229 38.0291V35.6654L20.7998 34.3353L22.7604 33.0053L22.4614 23.8172C22.4431 23.2539 22.2719 22.7033 21.9631 22.2139L20.1792 19.3873C20.0105 19.12 19.5948 19.0949 19.3882 19.3395L18.4881 20.4053C18.397 20.5132 18.2195 20.5187 18.1204 20.4167L14.1662 16.3435C14.1181 16.294 14.0581 16.2551 13.9908 16.2299L12.9609 15.8444C12.8043 15.7858 12.7639 15.6021 12.8837 15.4938L13.1553 15.2483C13.2304 15.1804 13.3463 15.1657 13.4391 15.2125L22.1403 19.5944C22.6262 19.8391 23.2212 19.5092 23.2002 19.0067L22.9211 12.3222L17.5342 9.07184L11.5797 8.34784L8.34766 9.9577C11.1353 11.5419 11.6204 16.0162 11.0759 18.3212C10.9845 18.7085 11.1291 19.126 11.483 19.3593C18.4839 23.9756 18.0122 28.8854 18.4295 31.4896C18.8382 34.0381 18.8428 38.9872 20.7988 39.6522V37.1373L21.2892 36.5496L21.7796 37.5841Z" fill="#21351A"/>
<path d="M26.22 37.5841L25.2392 36.254L25.2383 36.2574L24.1767 38.0291V35.6654L27.1999 34.3353L25.2392 33.0053L25.5382 23.8172C25.5566 23.2539 25.7277 22.7033 26.0366 22.2139L27.8204 19.3873C27.9892 19.12 28.4049 19.0949 28.6115 19.3395L29.5115 20.4053C29.6027 20.5132 29.7802 20.5187 29.8792 20.4167L33.8334 16.3435C33.8815 16.294 33.9415 16.2551 34.0089 16.2299L35.0388 15.8444C35.1953 15.7858 35.2357 15.6021 35.1159 15.4938L34.8444 15.2483C34.7692 15.1804 34.6534 15.1657 34.5605 15.2125L25.8594 19.5944C25.3735 19.8391 24.7785 19.5092 24.7995 19.0067L25.0786 12.3222L30.4655 9.07184L36.42 8.34784L39.652 9.9577C36.8644 11.5419 36.3793 16.0162 36.9237 18.3212C37.0152 18.7085 36.8706 19.126 36.5167 19.3593C29.5157 23.9756 29.9874 28.8854 29.5701 31.4896C29.1615 34.0381 29.1568 38.9872 27.2008 39.6522V37.1373L26.7104 36.5496L26.22 37.5841Z" fill="#21351A"/>
<path d="M21.7796 37.5841L22.7604 36.254L22.7614 36.2574L23.8229 38.0291V35.6654L20.7998 34.3353L22.7604 33.0053L22.4614 23.8172C22.4431 23.2539 22.2719 22.7033 21.9631 22.2139L20.1792 19.3873C20.0105 19.12 19.5948 19.0949 19.3882 19.3395L18.4881 20.4053C18.397 20.5132 18.2195 20.5187 18.1204 20.4167L14.1662 16.3435C14.1181 16.294 14.0581 16.2551 13.9908 16.2299L12.9609 15.8444C12.8043 15.7858 12.7639 15.6021 12.8837 15.4938L13.1553 15.2483C13.2304 15.1804 13.3463 15.1657 13.4391 15.2125L22.1403 19.5944C22.6262 19.8391 23.2212 19.5092 23.2002 19.0067L22.9211 12.3222L17.5342 9.07184L11.5797 8.34784L8.34766 9.9577C11.1353 11.5419 11.6204 16.0162 11.0759 18.3212C10.9845 18.7085 11.1291 19.126 11.483 19.3593C18.4839 23.9756 18.0122 28.8854 18.4295 31.4896C18.8382 34.0381 18.8428 38.9872 20.7988 39.6522V37.1373L21.2892 36.5496L21.7796 37.5841Z" stroke="#9FE878"/>
<path d="M26.22 37.5841L25.2392 36.254L25.2383 36.2574L24.1767 38.0291V35.6654L27.1999 34.3353L25.2392 33.0053L25.5382 23.8172C25.5566 23.2539 25.7277 22.7033 26.0366 22.2139L27.8204 19.3873C27.9892 19.12 28.4049 19.0949 28.6115 19.3395L29.5115 20.4053C29.6027 20.5132 29.7802 20.5187 29.8792 20.4167L33.8334 16.3435C33.8815 16.294 33.9415 16.2551 34.0089 16.2299L35.0388 15.8444C35.1953 15.7858 35.2357 15.6021 35.1159 15.4938L34.8444 15.2483C34.7692 15.1804 34.6534 15.1657 34.5605 15.2125L25.8594 19.5944C25.3735 19.8391 24.7785 19.5092 24.7995 19.0067L25.0786 12.3222L30.4655 9.07184L36.42 8.34784L39.652 9.9577C36.8644 11.5419 36.3793 16.0162 36.9237 18.3212C37.0152 18.7085 36.8706 19.126 36.5167 19.3593C29.5157 23.9756 29.9874 28.8854 29.5701 31.4896C29.1615 34.0381 29.1568 38.9872 27.2008 39.6522V37.1373L26.7104 36.5496L26.22 37.5841Z" stroke="#9FE878"/>
</svg>
