<svg width="48" height="48" viewBox="0 0 48 48" fill="none" xmlns="http://www.w3.org/2000/svg">
<rect width="48" height="48" rx="13.5652" fill="#21351A"/>
<path d="M21.7798 37.584L22.7606 36.254L22.7615 36.2573L23.8231 38.0291V35.6654L20.7999 34.3353L22.7606 33.0053L22.4616 23.8172C22.4432 23.2539 22.2721 22.7033 21.9632 22.2139L20.1794 19.3873C20.0107 19.12 19.595 19.0948 19.3884 19.3395L18.4883 20.4053C18.3972 20.5132 18.2196 20.5187 18.1206 20.4167L14.1664 16.3435C14.1183 16.294 14.0583 16.2551 13.9909 16.2299L12.9611 15.8444C12.8045 15.7857 12.7641 15.6021 12.8839 15.4938L13.1554 15.2483C13.2306 15.1803 13.3465 15.1657 13.4393 15.2125L22.1405 19.5944C22.6264 19.8391 23.2213 19.5092 23.2004 19.0067L22.9213 12.3222L17.5344 9.07182L11.5798 8.34782L8.34782 9.95768C11.1354 11.5419 11.6206 16.0162 11.0761 18.3212C10.9846 18.7085 11.1293 19.126 11.4832 19.3593C18.4841 23.9756 18.0124 28.8854 18.4297 31.4896C18.8384 34.0381 18.843 38.9871 20.799 39.6522V37.1373L21.2894 36.5495L21.7798 37.584Z" fill="#9FE878"/>
<path d="M26.2202 37.584L25.2394 36.254L25.2385 36.2573L24.1769 38.0291V35.6654L27.2001 34.3353L25.2394 33.0053L25.5384 23.8172C25.5567 23.2539 25.7279 22.7033 26.0368 22.2139L27.8206 19.3873C27.9893 19.12 28.405 19.0948 28.6116 19.3395L29.5117 20.4053C29.6028 20.5132 29.7804 20.5187 29.8794 20.4167L33.8336 16.3435C33.8817 16.294 33.9417 16.2551 34.0091 16.2299L35.0389 15.8444C35.1955 15.7857 35.2359 15.6021 35.1161 15.4938L34.8445 15.2483C34.7694 15.1803 34.6535 15.1657 34.5607 15.2125L25.8595 19.5944C25.3736 19.8391 24.7787 19.5092 24.7996 19.0067L25.0787 12.3222L30.4656 9.07182L36.4202 8.34782L39.6522 9.95768C36.8646 11.5419 36.3794 16.0162 36.9239 18.3212C37.0154 18.7085 36.8707 19.126 36.5168 19.3593C29.5159 23.9756 29.9876 28.8854 29.5703 31.4896C29.1616 34.0381 29.157 38.9871 27.201 39.6522V37.1373L26.7106 36.5495L26.2202 37.584Z" fill="#9FE878"/>
<path d="M21.7798 37.584L22.7606 36.254L22.7615 36.2573L23.8231 38.0291V35.6654L20.7999 34.3353L22.7606 33.0053L22.4616 23.8172C22.4432 23.2539 22.2721 22.7033 21.9632 22.2139L20.1794 19.3873C20.0107 19.12 19.595 19.0948 19.3884 19.3395L18.4883 20.4053C18.3972 20.5132 18.2196 20.5187 18.1206 20.4167L14.1664 16.3435C14.1183 16.294 14.0583 16.2551 13.9909 16.2299L12.9611 15.8444C12.8045 15.7857 12.7641 15.6021 12.8839 15.4938L13.1554 15.2483C13.2306 15.1803 13.3465 15.1657 13.4393 15.2125L22.1405 19.5944C22.6264 19.8391 23.2213 19.5092 23.2004 19.0067L22.9213 12.3222L17.5344 9.07182L11.5798 8.34782L8.34782 9.95768C11.1354 11.5419 11.6206 16.0162 11.0761 18.3212C10.9846 18.7085 11.1293 19.126 11.4832 19.3593C18.4841 23.9756 18.0124 28.8854 18.4297 31.4896C18.8384 34.0381 18.843 38.9871 20.799 39.6522V37.1373L21.2894 36.5495L21.7798 37.584Z" stroke="#21351A"/>
<path d="M26.2202 37.584L25.2394 36.254L25.2385 36.2573L24.1769 38.0291V35.6654L27.2001 34.3353L25.2394 33.0053L25.5384 23.8172C25.5567 23.2539 25.7279 22.7033 26.0368 22.2139L27.8206 19.3873C27.9893 19.12 28.405 19.0948 28.6116 19.3395L29.5117 20.4053C29.6028 20.5132 29.7804 20.5187 29.8794 20.4167L33.8336 16.3435C33.8817 16.294 33.9417 16.2551 34.0091 16.2299L35.0389 15.8444C35.1955 15.7857 35.2359 15.6021 35.1161 15.4938L34.8445 15.2483C34.7694 15.1803 34.6535 15.1657 34.5607 15.2125L25.8595 19.5944C25.3736 19.8391 24.7787 19.5092 24.7996 19.0067L25.0787 12.3222L30.4656 9.07182L36.4202 8.34782L39.6522 9.95768C36.8646 11.5419 36.3794 16.0162 36.9239 18.3212C37.0154 18.7085 36.8707 19.126 36.5168 19.3593C29.5159 23.9756 29.9876 28.8854 29.5703 31.4896C29.1616 34.0381 29.157 38.9871 27.201 39.6522V37.1373L26.7106 36.5495L26.2202 37.584Z" stroke="#21351A"/>
</svg>
