<svg width="18" height="18" viewBox="0 0 18 18" fill="none" xmlns="http://www.w3.org/2000/svg">
<path d="M9.9108 16.3637H5.79258C4.36166 16.3637 3.20167 15.2037 3.20167 13.7728V9.48302M8.17238 1.59033H12.2065C13.6083 1.59033 14.7446 2.75032 14.7446 4.18124V8.47105M4.90943 7.50003C3.47859 7.50003 2.31826 6.34025 2.31812 4.90946C2.31812 3.47853 3.47851 2.31815 4.90943 2.31815C6.34022 2.31829 7.5 3.47862 7.5 4.90946C7.49986 6.34016 6.34013 7.49989 4.90943 7.50003ZM13.0245 15.6983C11.5937 15.6983 10.4333 14.5385 10.4332 13.1077C10.4332 11.6768 11.5936 10.5164 13.0245 10.5164C14.4553 10.5165 15.6151 11.6769 15.6151 13.1077C15.6149 14.5384 14.4552 15.6981 13.0245 15.6983Z" stroke="black" stroke-width="1.17" stroke-linecap="round"/>
</svg>
