<svg width="25" height="24" viewBox="0 0 25 24" fill="none" xmlns="http://www.w3.org/2000/svg">
<rect x="0.5" width="24" height="24" rx="12" fill="#9FE878"/>
<path d="M19.5333 9.61787L17.2019 6.66497C16.8458 6.21393 16.3028 5.95079 15.7281 5.95079H12.5272L9.27447 5.94727C8.69856 5.94665 8.1542 6.21034 7.79769 6.66264L5.46842 9.61771C5.15204 10.0191 5.16842 10.5894 5.50731 10.972L11.7069 17.9706C12.1271 18.4449 12.8674 18.4451 13.2878 17.9711L19.4945 10.9733C19.8341 10.5905 19.8504 10.0195 19.5333 9.61787Z" fill="#21351A"/>
<path d="M12.4718 5.95079H12.5272M12.5272 5.95079H15.7281C16.3028 5.95079 16.8458 6.21393 17.2019 6.66497L19.5333 9.61787C19.8504 10.0195 19.8341 10.5905 19.4945 10.9733L13.2878 17.9711C12.8674 18.4451 12.1271 18.4449 11.7069 17.9706L5.50731 10.972C5.16842 10.5894 5.15204 10.0191 5.46842 9.61771L7.79769 6.66264C8.1542 6.21034 8.69856 5.94665 9.27447 5.94727L12.5272 5.95079Z" stroke="#21351A" stroke-width="1.26126"/>
<path d="M10.2734 14.2926C10.4451 13.6061 10.7883 11.8897 11.6465 11.8897C12.3331 11.8897 12.3331 12.9195 13.0196 12.9195C13.8778 12.9195 14.5643 11.2031 14.736 10.5166" stroke="#9FE878" stroke-width="0.9702" stroke-linecap="round" stroke-linejoin="round"/>
<path d="M14.6211 7.49414V8.11828M14.9326 7.80601H14.3084M10.2321 9.9823V10.2944M10.3863 10.1382H10.0742M12.4393 9.68131C12.4254 9.62731 12.3972 9.57804 12.3578 9.5386C12.3184 9.49917 12.2691 9.47102 12.2151 9.45709L11.2578 9.21024C11.2415 9.20561 11.2271 9.19577 11.2169 9.18223C11.2066 9.16868 11.2011 9.15217 11.2011 9.13519C11.2011 9.11821 11.2066 9.1017 11.2169 9.08816C11.2271 9.07461 11.2415 9.06477 11.2578 9.06014L12.2151 8.81314C12.2691 8.79922 12.3183 8.7711 12.3578 8.73169C12.3972 8.69229 12.4253 8.64304 12.4393 8.58907L12.6861 7.6318C12.6907 7.6154 12.7006 7.60095 12.7141 7.59066C12.7277 7.58037 12.7442 7.5748 12.7613 7.5748C12.7783 7.5748 12.7949 7.58037 12.8084 7.59066C12.822 7.60095 12.8318 7.6154 12.8364 7.6318L13.0831 8.58907C13.097 8.64307 13.1252 8.69235 13.1646 8.73178C13.204 8.77122 13.2533 8.79936 13.3073 8.81329L14.2646 9.05998C14.2811 9.06452 14.2956 9.07434 14.3059 9.08793C14.3163 9.10151 14.3219 9.11812 14.3219 9.13519C14.3219 9.15227 14.3163 9.16887 14.3059 9.18246C14.2956 9.19604 14.2811 9.20586 14.2646 9.2104L13.3073 9.45709C13.2533 9.47102 13.204 9.49917 13.1646 9.5386C13.1252 9.57804 13.097 9.62731 13.0831 9.68131L12.8362 10.6386C12.8317 10.655 12.8218 10.6694 12.8083 10.6797C12.7947 10.69 12.7781 10.6956 12.7611 10.6956C12.7441 10.6956 12.7275 10.69 12.714 10.6797C12.7004 10.6694 12.6906 10.655 12.686 10.6386L12.4393 9.68131Z" stroke="#9FE878" stroke-width="0.6468" stroke-linecap="round" stroke-linejoin="round"/>
</svg>
